<?xml version="1.0" encoding="UTF-8"?>
<svg width="122px" height="34px" viewBox="0 0 122 34" version="1.1" xmlns="http://www.w3.org/2000/svg" xmlns:xlink="http://www.w3.org/1999/xlink">
    <!-- Generator: Sketch 41 (35326) - http://www.bohemiancoding.com/sketch -->
    <title>Group</title>
    <desc>Created with Sketch.</desc>
    <defs></defs>
    <g id="Page-1" stroke="none" stroke-width="1" fill="none" fill-rule="evenodd">
        <g id="main" transform="translate(-662.000000, -7.000000)" fill="#FFFFFF">
            <g id="Group" transform="translate(662.000000, 7.000000)">
                <path d="M0.43,6.265 C0.43,6.09499915 0.477499525,5.96250047 0.5725,5.8675 C0.667500475,5.77249952 0.8049991,5.725 0.985,5.725 L1.525,5.725 C1.69500085,5.725 1.8299995,5.77249952 1.93,5.8675 C2.0300005,5.96250047 2.08,6.09499915 2.08,6.265 L2.08,27.46 C2.08,27.8200018 1.89500185,28 1.525,28 L0.985,28 C0.61499815,28 0.43,27.8200018 0.43,27.46 L0.43,6.265 Z M8.455,27.46 C8.455,27.8200018 8.27000185,28 7.9,28 L7.285,28 C6.9049981,28 6.715,27.8200018 6.715,27.46 L6.715,13.72 C6.715,13.5799993 6.7549996,13.4650004 6.835,13.375 C6.9150004,13.2849995 7.02999925,13.24 7.18,13.24 L8.065,13.24 C8.15500045,13.24 8.23249967,13.2699997 8.2975,13.33 C8.36250032,13.3900003 8.39999995,13.4699995 8.41,13.57 L8.455,15.61 C8.70500125,15.2399981 8.9999983,14.8950016 9.34,14.575 C9.6800017,14.2549984 10.0549979,13.9775012 10.465,13.7425 C10.875002,13.5074988 11.3124977,13.3225007 11.7775,13.1875 C12.2425023,13.0524993 12.7299974,12.985 13.24,12.985 C14.1000043,12.985 14.8974963,13.1449984 15.6325,13.465 C16.3675037,13.7850016 17.0049973,14.2249972 17.545,14.785 C18.0850027,15.3450028 18.5099984,16.0024962 18.82,16.7575 C19.1300015,17.5125038 19.285,18.3199957 19.285,19.18 L19.285,27.4 C19.285,27.600001 19.2325005,27.7499995 19.1275,27.85 C19.0224995,27.9500005 18.8800009,28 18.7,28 L18.085,28 C17.884999,28 17.7450004,27.9525005 17.665,27.8575 C17.5849996,27.7624995 17.545,27.615001 17.545,27.415 L17.545,19.15 C17.5349999,18.5299969 17.4100012,17.9500027 17.17,17.41 C16.9299988,16.8699973 16.607502,16.400002 16.2025,16 C15.797498,15.599998 15.3250027,15.2850011 14.785,15.055 C14.2449973,14.8249988 13.670003,14.71 13.06,14.71 C12.459997,14.71 11.8875027,14.8199989 11.3425,15.04 C10.7974973,15.2600011 10.3150021,15.5624981 9.895,15.9475 C9.4749979,16.3325019 9.13750127,16.7874974 8.8825,17.3125 C8.62749872,17.8375026 8.48500015,18.4049969 8.455,19.015 L8.455,27.46 Z M30.31,16.3 C29.9899984,15.7799974 29.5600027,15.3550016 29.02,15.025 C28.4799973,14.6949983 27.8650034,14.53 27.175,14.53 C26.7449978,14.53 26.3500018,14.5899994 25.99,14.71 C25.6299982,14.8300006 25.3200013,14.9999989 25.06,15.22 C24.7999987,15.4400011 24.5975007,15.7024985 24.4525,16.0075 C24.3074993,16.3125015 24.235,16.6499981 24.235,17.02 C24.235,17.3800018 24.3274991,17.6974986 24.5125,17.9725 C24.6975009,18.2475014 24.9299986,18.482499 25.21,18.6775 C25.4900014,18.872501 25.7974983,19.0349993 26.1325,19.165 C26.4675017,19.2950006 26.7849985,19.3999996 27.085,19.48 L27.535,19.6 C28.2650036,19.800001 28.9224971,20.0449985 29.5075,20.335 C30.0925029,20.6250014 30.5899979,20.9574981 31,21.3325 C31.410002,21.7075019 31.7249989,22.1249977 31.945,22.585 C32.1650011,23.0450023 32.275,23.5399973 32.275,24.07 C32.275,24.7500034 32.1350014,25.3549973 31.855,25.885 C31.5749986,26.4150026 31.1975024,26.8599982 30.7225,27.22 C30.2474976,27.5800018 29.6975031,27.8524991 29.0725,28.0375 C28.4474969,28.2225009 27.7900034,28.315 27.1,28.315 C26.5299971,28.315 25.9825026,28.2500006 25.4575,28.12 C24.9324974,27.9899993 24.4475022,27.7975013 24.0025,27.5425 C23.5574978,27.2874987 23.1725016,26.9675019 22.8475,26.5825 C22.5224984,26.1974981 22.2800008,25.7550025 22.12,25.255 C22.0899998,25.1849996 22.075,25.1200003 22.075,25.06 C22.075,24.9799996 22.1074997,24.8925005 22.1725,24.7975 C22.2375003,24.7024995 22.3249994,24.6300002 22.435,24.58 L23.005,24.325 C23.0950004,24.2949998 23.1699997,24.28 23.23,24.28 C23.3300005,24.28 23.4149996,24.3099997 23.485,24.37 C23.5550003,24.4300003 23.6149997,24.5049995 23.665,24.595 L23.74,24.745 C23.9000008,25.0650016 24.1124987,25.3499987 24.3775,25.6 C24.6425013,25.8500012 24.9324984,26.0599991 25.2475,26.23 C25.5625016,26.4000008 25.8824984,26.5274996 26.2075,26.6125 C26.5325016,26.6975004 26.8299986,26.74 27.1,26.74 C27.4600018,26.74 27.8449979,26.6875005 28.255,26.5825 C28.665002,26.4774995 29.0449982,26.3175011 29.395,26.1025 C29.7450017,25.8874989 30.0349988,25.6150016 30.265,25.285 C30.4950011,24.9549983 30.61,24.5600023 30.61,24.1 C30.61,23.6699978 30.4950011,23.2925016 30.265,22.9675 C30.0349988,22.6424984 29.7400018,22.3625012 29.38,22.1275 C29.0199982,21.8924988 28.6200022,21.6950008 28.18,21.535 C27.7399978,21.3749992 27.3100021,21.2450005 26.89,21.145 C26.3699974,20.9949992 25.8525026,20.7950012 25.3375,20.545 C24.8224974,20.2949987 24.362502,19.9975017 23.9575,19.6525 C23.552498,19.3074983 23.2250012,18.9150022 22.975,18.475 C22.7249987,18.0349978 22.6,17.5550026 22.6,17.035 C22.6,16.4249969 22.7099989,15.8700025 22.93,15.37 C23.1500011,14.8699975 23.457498,14.4400018 23.8525,14.08 C24.247502,13.7199982 24.7274972,13.442501 25.2925,13.2475 C25.8575028,13.052499 26.4849965,12.955 27.175,12.955 C28.175005,12.955 29.077496,13.1699978 29.8825,13.6 C30.687504,14.0300021 31.3499974,14.6999954 31.87,15.61 C31.9200002,15.7300006 31.945,15.8299996 31.945,15.91 C31.945,15.9800003 31.9250002,16.0524996 31.885,16.1275 C31.8449998,16.2025004 31.7850004,16.2649997 31.705,16.315 L31.18,16.63 C31.0399993,16.7200004 30.9200005,16.765 30.82,16.765 C30.7099994,16.765 30.6300002,16.7350003 30.58,16.675 C30.5299997,16.6149997 30.4650004,16.5300005 30.385,16.42 L30.295,16.3 L30.31,16.3 Z M41.23,26.47 C41.4000008,26.47 41.5474994,26.5174995 41.6725,26.6125 C41.7975006,26.7075005 41.86,26.854999 41.86,27.055 L41.86,27.55 C41.86,27.7800011 41.7925007,27.9349996 41.6575,28.015 C41.5224993,28.0950004 41.355001,28.135 41.155,28.135 L40.705,28.135 C40.1949974,28.135 39.7200022,28.1025003 39.28,28.0375 C38.8399978,27.9724997 38.4600016,27.8200012 38.14,27.58 C37.8199984,27.3399988 37.5675009,26.9825024 37.3825,26.5075 C37.1974991,26.0324976 37.105,25.3850041 37.105,24.565 L37.105,14.92 L35.035,14.92 C34.834999,14.92 34.6875005,14.8800004 34.5925,14.8 C34.4974995,14.7199996 34.45,14.580001 34.45,14.38 L34.45,13.825 C34.45,13.624999 34.4974995,13.4850004 34.5925,13.405 C34.6875005,13.3249996 34.834999,13.285 35.035,13.285 L37.105,13.285 L37.105,8.86 C37.105,8.5599985 37.2699983,8.38500025 37.6,8.335 L38.35,8.23 C38.550001,8.23 38.6849996,8.2899994 38.755,8.41 C38.8250003,8.5300006 38.86,8.6799991 38.86,8.86 L38.86,13.285 L41.455,13.285 C41.6350009,13.285 41.7774995,13.3299995 41.8825,13.42 C41.9875005,13.5100004 42.04,13.654999 42.04,13.855 L42.04,14.35 C42.04,14.550001 41.9875005,14.6949995 41.8825,14.785 C41.7774995,14.8750004 41.6350009,14.92 41.455,14.92 L38.86,14.92 L38.86,24.16 C38.86,24.6900026 38.8949996,25.1024985 38.965,25.3975 C39.0350003,25.6925015 39.1449992,25.9149992 39.295,26.065 C39.4450007,26.2150007 39.6324989,26.3124998 39.8575,26.3575 C40.0825011,26.4025002 40.3549984,26.4399998 40.675,26.47 L41.23,26.47 Z M58.645,27.49 C58.645,27.6600008 58.5900005,27.7924995 58.48,27.8875 C58.3699994,27.9825005 58.2200009,28.03 58.03,28.03 L57.55,28.03 C57.149998,28.03 56.95,27.830002 56.95,27.43 L56.95,24.82 C56.7699991,25.3800028 56.5050017,25.8774978 56.155,26.3125 C55.8049982,26.7475022 55.3925024,27.1149985 54.9175,27.415 C54.4424976,27.7150015 53.9150029,27.9449992 53.335,28.105 C52.7549971,28.2650008 52.1400032,28.345 51.49,28.345 C50.4699949,28.345 49.5200044,28.145002 48.64,27.745 C47.7599956,27.344998 46.9975032,26.8000034 46.3525,26.11 C45.7074968,25.4199965 45.2000018,24.6100046 44.83,23.68 C44.4599981,22.7499953 44.275,21.7550053 44.275,20.695 C44.275,19.6349947 44.4574982,18.6375047 44.8225,17.7025 C45.1875018,16.7674953 45.6924968,15.9500035 46.3375,15.25 C46.9825032,14.5499965 47.7449956,14.000002 48.625,13.6 C49.5050044,13.199998 50.4599948,13 51.49,13 C52.1500033,13 52.777497,13.0849991 53.3725,13.255 C53.967503,13.4250008 54.5049976,13.6649984 54.985,13.975 C55.4650024,14.2850015 55.8749983,14.6524979 56.215,15.0775 C56.5550017,15.5025021 56.7999992,15.9699974 56.95,16.48 L57.01,13.915 C57.02,13.714999 57.0699995,13.5625005 57.16,13.4575 C57.2500004,13.3524995 57.394999,13.3 57.595,13.3 L58.03,13.3 C58.2100009,13.3 58.3574994,13.3524995 58.4725,13.4575 C58.5875006,13.5625005 58.645,13.714999 58.645,13.915 L58.645,27.49 Z M56.935,20.71 C56.935,19.8899959 56.8025013,19.1150036 56.5375,18.385 C56.2724987,17.6549963 55.9000024,17.0150027 55.42,16.465 C54.9399976,15.9149972 54.3650033,15.4800016 53.695,15.16 C53.0249966,14.8399984 52.290004,14.68 51.49,14.68 C50.6799959,14.68 49.9375034,14.8399984 49.2625,15.16 C48.5874966,15.4800016 48.0075024,15.9124973 47.5225,16.4575 C47.0374976,17.0025027 46.6575014,17.6399963 46.3825,18.37 C46.1074986,19.1000036 45.97,19.8749959 45.97,20.695 C45.97,21.5150041 46.1074986,22.2874964 46.3825,23.0125 C46.6575014,23.7375036 47.0399975,24.3699973 47.53,24.91 C48.0200024,25.4500027 48.6024966,25.8774984 49.2775,26.1925 C49.9525034,26.5075016 50.689996,26.665 51.49,26.665 C52.2800039,26.665 53.0099966,26.5100015 53.68,26.2 C54.3500033,25.8899984 54.9249976,25.4675027 55.405,24.9325 C55.8850024,24.3974973 56.2599986,23.7675036 56.53,23.0425 C56.8000013,22.3174964 56.935,21.5400041 56.935,20.71 Z M76.615,13.915 L76.615,25.93 C76.615,26.0400005 76.61,26.1599993 76.6,26.29 C76.6,27.5800064 76.402502,28.7024952 76.0075,29.6575 C75.612498,30.6125048 75.0850033,31.4049968 74.425,32.035 C73.7649967,32.6650031 73.0000043,33.1374984 72.13,33.4525 C71.2599956,33.7675016 70.3550047,33.925 69.415,33.925 C68.6349961,33.925 67.9350031,33.8300009 67.315,33.64 C66.6949969,33.449999 66.0950029,33.1950016 65.515,32.875 L65.53,32.875 C65.3999993,32.8049996 65.3050003,32.7425003 65.245,32.6875 C65.1849997,32.6324997 65.155,32.5600004 65.155,32.47 C65.155,32.4199997 65.1849997,32.3450005 65.245,32.245 C65.3050003,32.1449995 65.3724996,32.0400005 65.4475,31.93 C65.5225004,31.8199994 65.5949996,31.7175005 65.665,31.6225 C65.7350003,31.5274995 65.7799999,31.4650001 65.8,31.435 C65.8600003,31.3449995 65.9274996,31.2900001 66.0025,31.27 C66.0775004,31.2499999 66.1599995,31.2499999 66.25,31.27 C66.3400004,31.2900001 66.4349995,31.3274997 66.535,31.3825 C66.6350005,31.4375003 66.7449994,31.4899997 66.865,31.54 C67.2450019,31.7100008 67.6474979,31.8549994 68.0725,31.975 C68.4975021,32.0950006 68.9199979,32.155 69.34,32.155 C70.0400035,32.155 70.7224967,32.0350012 71.3875,31.795 C72.0525033,31.5549988 72.6424974,31.1975024 73.1575,30.7225 C73.6725026,30.2474976 74.0849984,29.6550035 74.395,28.945 C74.7050015,28.2349964 74.86,27.4150046 74.86,26.485 L74.86,24.985 C74.659999,25.5150026 74.3775018,25.9899979 74.0125,26.41 C73.6474982,26.8300021 73.2200024,27.1824986 72.73,27.4675 C72.2399975,27.7525014 71.7050029,27.9699992 71.125,28.12 C70.5449971,28.2700007 69.9400031,28.345 69.31,28.345 C68.2899949,28.345 67.3400044,28.145002 66.46,27.745 C65.5799956,27.344998 64.8175032,26.8000034 64.1725,26.11 C63.5274968,25.4199965 63.0200018,24.6100046 62.65,23.68 C62.2799981,22.7499953 62.095,21.7550053 62.095,20.695 C62.095,19.6349947 62.2774982,18.6375047 62.6425,17.7025 C63.0075018,16.7674953 63.5124968,15.9500035 64.1575,15.25 C64.8025032,14.5499965 65.5649956,14.000002 66.445,13.6 C67.3250044,13.199998 68.2799948,13 69.31,13 C69.9700033,13 70.6049969,13.0849991 71.215,13.255 C71.825003,13.4250008 72.3774975,13.6649984 72.8725,13.975 C73.3675025,14.2850015 73.7949982,14.6524979 74.155,15.0775 C74.5150018,15.5025021 74.7699992,15.9699974 74.92,16.48 L74.98,13.915 C74.99,13.714999 75.0399995,13.5625005 75.13,13.4575 C75.2200004,13.3524995 75.364999,13.3 75.565,13.3 L76,13.3 C76.1800009,13.3 76.3274994,13.3524995 76.4425,13.4575 C76.5575006,13.5625005 76.615,13.714999 76.615,13.915 Z M74.905,20.71 C74.905,19.8899959 74.7650014,19.1150036 74.485,18.385 C74.2049986,17.6549963 73.8150025,17.0150027 73.315,16.465 C72.8149975,15.9149972 72.2225034,15.4800016 71.5375,15.16 C70.8524966,14.8399984 70.110004,14.68 69.31,14.68 C68.4999959,14.68 67.7575034,14.8399984 67.0825,15.16 C66.4074966,15.4800016 65.8275024,15.9124973 65.3425,16.4575 C64.8574976,17.0025027 64.4775014,17.6399963 64.2025,18.37 C63.9274986,19.1000036 63.79,19.8749959 63.79,20.695 C63.79,21.5150041 63.9274986,22.2874964 64.2025,23.0125 C64.4775014,23.7375036 64.8599975,24.3699973 65.35,24.91 C65.8400024,25.4500027 66.4224966,25.8774984 67.0975,26.1925 C67.7725034,26.5075016 68.509996,26.665 69.31,26.665 C70.1000039,26.665 70.8374966,26.5100015 71.5225,26.2 C72.2075034,25.8899984 72.7999975,25.4675027 73.3,24.9325 C73.8000025,24.3974973 74.1924986,23.7675036 74.4775,23.0425 C74.7625014,22.3174964 74.905,21.5400041 74.905,20.71 Z M80.935,13.975 C80.935,13.5149977 81.1549978,13.285 81.595,13.285 L81.925,13.285 C82.4150024,13.285 82.66,13.5149977 82.66,13.975 L82.66,15.535 C82.8000007,15.1749982 82.9974987,14.8425015 83.2525,14.5375 C83.5075013,14.2324985 83.8024983,13.9725011 84.1375,13.7575 C84.4725017,13.5424989 84.8474979,13.3750006 85.2625,13.255 C85.6775021,13.1349994 86.1199976,13.075 86.59,13.075 C86.8900015,13.075 87.2249981,13.1149996 87.595,13.195 C87.9650018,13.2750004 88.3124984,13.3799993 88.6375,13.51 C88.9625016,13.6400006 89.2349989,13.7874992 89.455,13.9525 C89.6750011,14.1175008 89.785,14.2849991 89.785,14.455 C89.785,14.5550005 89.7550003,14.6699993 89.695,14.8 C89.6349997,14.9300006 89.5625004,15.0549994 89.4775,15.175 C89.3924996,15.2950006 89.3050004,15.3949996 89.215,15.475 C89.1249995,15.5550004 89.0500003,15.595 88.99,15.595 C88.9099996,15.595 88.8475002,15.5925 88.8025,15.5875 C88.7574998,15.5825 88.7050003,15.5600002 88.645,15.52 C88.3549985,15.3399991 88.0200019,15.1750007 87.64,15.025 C87.2599981,14.8749992 86.8750019,14.8 86.485,14.8 C85.9249972,14.8 85.4125023,14.9274987 84.9475,15.1825 C84.4824977,15.4375013 84.0825017,15.7774979 83.7475,16.2025 C83.4124983,16.6275021 83.147501,17.1124973 82.9525,17.6575 C82.757499,18.2025027 82.66,18.7649971 82.66,19.345 L82.675,27.46 C82.675,27.8200018 82.4900018,28 82.12,28 L81.505,28 C81.1249981,28 80.935,27.8200018 80.935,27.46 L80.935,13.975 Z M93.1,13.855 C93.1,13.6849991 93.1524995,13.5500005 93.2575,13.45 C93.3625005,13.3499995 93.4999991,13.3 93.67,13.3 L94.21,13.3 C94.3900009,13.3 94.5274995,13.3499995 94.6225,13.45 C94.7175005,13.5500005 94.765,13.6849991 94.765,13.855 L94.765,27.46 C94.765,27.8200018 94.5800018,28 94.21,28 L93.685,28 C93.294998,28 93.1,27.8200018 93.1,27.46 L93.1,13.855 Z M92.65,8.89 C92.65,8.5299982 92.7774987,8.22250127 93.0325,7.9675 C93.2875013,7.71249872 93.5949982,7.585 93.955,7.585 C94.3150018,7.585 94.6224987,7.71249872 94.8775,7.9675 C95.1325013,8.22250127 95.26,8.5299982 95.26,8.89 C95.26,9.2500018 95.1325013,9.55749872 94.8775,9.8125 C94.6224987,10.0675013 94.3150018,10.195 93.955,10.195 C93.5949982,10.195 93.2875013,10.0675013 93.0325,9.8125 C92.7774987,9.55749872 92.65,9.2500018 92.65,8.89 Z M112.675,27.37 C112.675,27.780002 112.465002,27.985 112.045,27.985 L111.595,27.985 C111.154998,27.985 110.935,27.780002 110.935,27.37 L110.935,25.495 C110.804999,25.7250011 110.612501,25.9999984 110.3575,26.32 C110.102499,26.6400016 109.757502,26.9499985 109.3225,27.25 C108.887498,27.5500015 108.355003,27.8049989 107.725,28.015 C107.094997,28.225001 106.340004,28.33 105.46,28.33 C104.479995,28.33 103.562504,28.130002 102.7075,27.73 C101.852496,27.329998 101.105003,26.7850034 100.465,26.095 C99.8249968,25.4049965 99.3225018,24.5950046 98.9575,23.665 C98.5924982,22.7349953 98.41,21.7350053 98.41,20.665 C98.41,19.6049947 98.5924982,18.6100046 98.9575,17.68 C99.3225018,16.7499953 99.8249968,15.9375035 100.465,15.2425 C101.105003,14.5474965 101.852496,14.000002 102.7075,13.6 C103.562504,13.199998 104.479995,13 105.46,13 C106.150003,13 106.782497,13.0899991 107.3575,13.27 C107.932503,13.4500009 108.444998,13.6974984 108.895,14.0125 C109.345002,14.3275016 109.739998,14.6949979 110.08,15.115 C110.420002,15.5350021 110.704999,15.9849976 110.935,16.465 L110.935,6.325 C110.935,6.1449991 110.989999,6.00250052 111.1,5.8975 C111.210001,5.79249947 111.369999,5.74 111.58,5.74 L112.015,5.74 C112.225001,5.74 112.387499,5.79249947 112.5025,5.8975 C112.617501,6.00250052 112.675,6.1449991 112.675,6.325 L112.675,27.37 Z M111.04,20.68 C111.04,19.8599959 110.895001,19.0850036 110.605,18.355 C110.314999,17.6249963 109.920002,16.9875027 109.42,16.4425 C108.919997,15.8974973 108.340003,15.4675016 107.68,15.1525 C107.019997,14.8374984 106.320004,14.68 105.58,14.68 C104.839996,14.68 104.140003,14.8374984 103.48,15.1525 C102.819997,15.4675016 102.242502,15.8974973 101.7475,16.4425 C101.252498,16.9875027 100.862501,17.6249963 100.5775,18.355 C100.292499,19.0850036 100.15,19.8599959 100.15,20.68 C100.15,21.5000041 100.292499,22.2749963 100.5775,23.005 C100.862501,23.7350036 101.252498,24.3724973 101.7475,24.9175 C102.242502,25.4625027 102.819997,25.8924984 103.48,26.2075 C104.140003,26.5225016 104.839996,26.68 105.58,26.68 C106.320004,26.68 107.019997,26.5225016 107.68,26.2075 C108.340003,25.8924984 108.919997,25.4625027 109.42,24.9175 C109.920002,24.3724973 110.314999,23.7350036 110.605,23.005 C110.895001,22.2749963 111.04,21.5000041 111.04,20.68 Z" id="Instagrid"></path>
                <path d="M115.96,3.232 C115.968,2.88399826 116.038999,2.56700143 116.173,2.281 C116.307001,1.99499857 116.483999,1.74900103 116.704,1.543 C116.924001,1.33699897 117.179999,1.17700057 117.472,1.063 C117.764001,0.94899943 118.073998,0.892 118.402,0.892 C118.738002,0.892 119.054999,0.94899943 119.353,1.063 C119.651001,1.17700057 119.912999,1.33599898 120.139,1.54 C120.365001,1.74400102 120.542999,1.98799858 120.673,2.272 C120.803001,2.55600142 120.868,2.86999828 120.868,3.214 C120.868,3.3940009 120.846,3.56899915 120.802,3.739 C120.758,3.90900085 120.697,4.06899925 120.619,4.219 C120.541,4.36900075 120.451001,4.50499939 120.349,4.627 C120.246999,4.74900061 120.136001,4.8499996 120.016,4.93 C120.496002,5.16200116 120.861999,5.49199786 121.114,5.92 C121.366001,6.34800214 121.492,6.8419972 121.492,7.402 C121.492,7.81800208 121.414001,8.20499821 121.258,8.563 C121.101999,8.92100179 120.888001,9.23199868 120.616,9.496 C120.343999,9.76000132 120.025002,9.96699925 119.659,10.117 C119.292998,10.2670007 118.900002,10.342 118.48,10.342 C118.396,10.342 118.329,10.3320001 118.279,10.312 C118.229,10.2919999 118.191,10.2660002 118.165,10.234 C118.139,10.2019998 118.123,10.1630002 118.117,10.117 C118.111,10.0709998 118.108,10.0240002 118.108,9.976 C118.108,9.92799976 118.11,9.88200022 118.114,9.838 C118.118,9.79399978 118.132,9.75500017 118.156,9.721 C118.18,9.68699983 118.218,9.65900011 118.27,9.637 C118.322,9.61499989 118.396,9.604 118.492,9.604 C118.764001,9.604 119.033999,9.55200052 119.302,9.448 C119.570001,9.34399948 119.810999,9.19600096 120.025,9.004 C120.239001,8.81199904 120.412999,8.58200134 120.547,8.314 C120.681001,8.04599866 120.748,7.74600166 120.748,7.414 C120.748,7.08999838 120.702,6.7980013 120.61,6.538 C120.518,6.2779987 120.376001,6.0580009 120.184,5.878 C119.991999,5.6979991 119.749001,5.55900049 119.455,5.461 C119.160999,5.36299951 118.814002,5.314 118.414,5.314 C118.35,5.314 118.289,5.29900015 118.231,5.269 C118.173,5.23899985 118.144,5.18000044 118.144,5.092 L118.144,4.834 C118.144,4.74199954 118.17,4.68000016 118.222,4.648 C118.274,4.61599984 118.334,4.6 118.402,4.6 L118.468,4.6 C118.696001,4.6 118.909999,4.57300027 119.11,4.519 C119.310001,4.46499973 119.484999,4.38200056 119.635,4.27 C119.785001,4.15799944 119.903,4.01600086 119.989,3.844 C120.075,3.67199914 120.118,3.4660012 120.118,3.226 C120.118,2.97799876 120.075,2.754001 119.989,2.554 C119.903,2.353999 119.783001,2.1840007 119.629,2.044 C119.474999,1.9039993 119.293001,1.79600038 119.083,1.72 C118.872999,1.64399962 118.642001,1.606 118.39,1.606 C118.133999,1.606 117.899001,1.65399952 117.685,1.75 C117.470999,1.84600048 117.287001,1.98199912 117.133,2.158 C116.978999,2.33400088 116.859,2.54499877 116.773,2.791 C116.687,3.03700123 116.644,3.3099985 116.644,3.61 L116.65,12.094 C116.65,12.2380007 116.578001,12.31 116.434,12.31 L116.188,12.31 C116.031999,12.31 115.954,12.2380007 115.954,12.094 L115.96,3.232 Z" id="β"></path>
            </g>
        </g>
    </g>
</svg>